<svg xmlns="http://www.w3.org/2000/svg" width="64" height="64" class="icon" viewBox="0 0 1024 1024">
  <path fill="#FFF" d="M955.232 350.324H346.484v608.748h456.562V825.908c0-10.508 8.509-19.022 19.022-19.022h133.164V350.324zm-242.53-38.046-66.32-247.514L60.924 221.642l156.878 585.453 90.636-24.294V350.324c0-21.01 17.035-38.046 38.046-38.046h366.219zm242.53 532.655h-114.14v114.14c7.876 0 15.567-.798 22.999-2.32 44.586-9.123 81.426-55.566 90.547-100.146 1.525-7.428.594-3.798.594-11.674"/>
  <path fill="#F7D54A" d="M841.093 959.072c63.035 0 114.14-51.105 114.14-114.14h-114.14v114.14zM346.484 350.324v608.748h456.562V825.908c0-10.508 8.509-19.022 19.022-19.022h133.164V350.324H346.484z"/>
  <path d="M879.14 902.002h19.022v-19.023H879.14v19.023zm38.047-38.046h-19.024v19.023h19.024v-19.023zm-76.094 0h19.023v-19.023h-19.023v19.023zm0 76.094h19.023v-19.023h-19.023v19.023zm107.509-57.071a113.997 113.997 0 0 0 4.924-19.023H936.21v19.023h12.39zm-12.392-38.046h-19.023v19.023h19.023v-19.023zm-19.023 57.069h19.023v-19.023h-19.023v19.023zm-19.025-57.069H879.14v19.023h19.022v-19.023zm-57.069 57.069h19.023v-19.023h-19.023v19.023zm63.043 38.048h-5.974v3.633c2.017-1.172 4.033-2.352 5.974-3.633m-24.996-38.048h-19.024v19.023h19.024v-19.023zm60.692 0h-3.622v5.972c1.281-1.939 2.461-3.955 3.622-5.972m-13.839 19.025h-8.806v8.806a112.092 112.092 0 0 0 8.806-8.806m-46.853-57.07h-19.024v19.022h19.024v-19.023zm19.022 57.07h19.023v-19.024h-19.023v19.024zM879.14 940.05h19.022v-19.023H879.14v19.023zm-19.024 17.31a113.069 113.069 0 0 0 19.024-4.918V940.05h-19.024v17.31zM251.368 673.723h19.023V654.7h-19.023v19.02zm0 76.093h19.023v-19.022h-19.023v19.022zm0-152.188h19.023v-19.023h-19.023v19.023zm19.023 171.211h19.023v-19.023h-19.023v19.023zm0-114.138h19.023v-19.024h-19.023V654.7zm0 38.045h19.023v-19.023h-19.023v19.023zm-19.023-57.069h19.023v-19.023h-19.023v19.023zm19.023 95.117h19.023V711.77h-19.023v19.023zm0-114.14h19.023v-19.025h-19.023v19.025zm-19.023 95.117h19.023v-19.025h-19.023v19.025zm57.07-57.07h-19.024v19.02h19.024V654.7zm76.093-342.422h19.024v-19.024H384.53v19.024zm76.094 0h19.024v-19.024h-19.024v19.024zm-38.047 0H441.6v-19.024h-19.023v19.024zm-171.21 475.585h19.023V768.84h-19.023v19.023zm57.07-399.492h-19.024v19.024h19.024V388.37zm38.046-76.093h19.024v-19.024h-19.024v19.024zm266.329 0h19.023v-19.024h-19.023v19.024zm38.047 0h19.02v-19.024h-19.02v19.024zm-76.094 0h19.02v-19.024h-19.02v19.024zm-76.095 0h19.024v-19.024H498.67v19.024zm38.048 0h19.024v-19.024h-19.024v19.024zm-228.281 38.046h-19.024v19.024h19.024v-19.024zm0 342.421h-19.024v19.025h19.024v-19.025zM270.39 578.604h19.023v-19.021h-19.023v19.02zm38.047 152.189h-19.024v19.022h19.024v-19.022zm-38.047 62.205 19.023-5.098v-.037h-19.023v5.135zm19.177-5.135 18.87-5.062V768.84h-19.024v19.023h.154zm18.87-285.35h-19.024v19.022h19.024v-19.022zm0-76.095h-19.024v19.023h19.024v-19.023zm0 190.235h-19.024v19.023h19.024v-19.023zm0-152.188h-19.024v19.024h19.024v-19.024zm0 76.094h-19.024v19.024h19.024v-19.024zm0 38.045h-19.024v19.023h19.024v-19.023zM441.6 293.254h19.022v-19.023h-19.022v19.023zm255.804-38.046h-8.5v19.023h13.6l-5.1-19.023zm-217.756 0h-19.024v19.023h19.024v-19.023zm0 38.046h19.022v-19.023H479.65v19.023zm38.046-38.046H498.67v19.023h19.024v-19.023zm-76.094 0h-19.023v19.023H441.6v-19.023zm-38.046 38.046h19.023v-19.023h-19.023v19.023zm114.14 0h19.023v-19.023h-19.023v19.023zm-152.187-38.046h-19.024v19.023h19.024v-19.023zm0 38.046h19.023v-19.023h-19.023v19.023zm38.047-38.046H384.53v19.023h19.024v-19.023zm190.232 38.046h19.025v-19.023h-19.025v19.023zm38.05 0h19.023v-19.023h-19.024v19.023zm57.068 0v19.024h19.025v-17.806l-.327-1.218h-18.698zM251.368 559.583h19.023v-19.024h-19.023v19.024zm304.375-304.375h-19.024v19.023h19.024v-19.023zm114.139 38.046h19.023v-19.023h-19.023v19.023zm-38.046-38.046h-19.023v19.023h19.023v-19.023zm-76.093 38.046h19.023v-19.023h-19.023v19.023zm38.044-38.046h-19.02v19.023h19.02v-19.023zM327.46 293.254h19.023v-19.023h-19.023v19.023zm342.42-38.046h-19.02v19.023h19.02v-19.023zM251.369 445.44h19.023v-19.023h-19.023v19.023zm19.023-19.023h19.023v-19.023h-19.023v19.023zm-19.023-19.023h19.023V388.37h-19.023v19.024zm19.023 57.07h19.023v-19.022h-19.023v19.022zm0 76.094h19.023v-19.023h-19.023v19.023zm0-152.188h19.023v-19.023h-19.023v19.023zm-19.023 133.164h19.023v-19.022h-19.023v19.022zm19.023-19.022h19.023v-19.024h-19.023v19.024zm-19.023-19.024h19.023v-19.024h-19.023v19.024zm38.046-152.188h19.024v-19.023h-19.024V331.3zm38.047-76.093h-19.023v19.023h19.023v-19.023zm-19.023 19.023h-19.024v19.023h19.024v-19.023zm-19.024 19.023h-19.023v19.024h19.023v-19.024zm19.024 19.024h19.023v-19.024h-19.023v19.024zm-19.024-57.07h-19.023v19.023h19.023v-19.023zm-38.046 114.14h19.023v-19.024h-19.023v19.024zm19.023-19.024h19.023v-19.023h-19.023v19.023zm-19.023-19.023h19.023v-19.023h-19.023V331.3zm0-38.047h19.023v-19.023h-19.023v19.023zM517.695 692.745c-52.533 0-95.117 42.586-95.117 95.118 0 52.534 42.584 95.117 95.117 95.117 52.537 0 95.118-42.583 95.118-95.117 0-52.532-42.58-95.118-95.118-95.118m0 171.211c-42.024 0-76.094-34.07-76.094-76.093s34.07-76.092 76.094-76.092c42.022 0 76.092 34.07 76.092 76.092s-34.07 76.093-76.092 76.093M707.93 426.418H422.578v19.023H707.93v-19.023zM422.578 559.583H879.14v-19.024H422.578v19.024zm0 57.07h380.468v-19.025H422.578v19.025zm0-114.14H879.14v-19.024H422.578v19.024zm304.374 190.232c-21.01 0-38.047 17.037-38.047 38.048s17.037 38.047 38.047 38.047c21.012 0 38.048-17.036 38.048-38.047s-17.036-38.048-38.048-38.048m0 57.07c-10.514 0-19.021-8.512-19.021-19.022s8.507-19.022 19.02-19.022c10.517 0 19.024 8.512 19.024 19.022s-8.508 19.022-19.023 19.022"/>
  <path d="M955.232 312.278H751.921L682.97 54.96c-5.417-20.204-26.186-32.2-46.398-26.784L51.13 185.048c-20.213 5.416-32.209 26.187-26.798 46.399L181.21 816.895c5.411 20.21 26.186 32.203 46.398 26.794l80.831-21.668v137.051c0 21.012 17.036 38.048 38.047 38.048h494.608c84.053 0 152.186-68.142 152.186-152.187V350.324c0-21.01-17.036-38.046-38.048-38.046m-646.794 38.046v432.48l-90.636 24.291L60.924 221.642 646.381 64.764l66.32 247.514H346.484c-21.01 0-38.046 17.035-38.046 38.046m494.608 475.584v133.164H346.484V350.324h608.748v456.562H822.068c-10.513 0-19.022 8.514-19.022 19.022m38.047 133.164v-114.14h114.14c-.001 63.036-51.105 114.14-114.14 114.14"/>
</svg>
